<?xml version="1.0" encoding="UTF-8"?>
<svg width="424.26px" height="424.26px" viewBox="37.868 37.868 424.26 424.26" xmlns="http://www.w3.org/2000/svg">
<path transform="translate(1.1369e-13)" d="m250 37.868c9.588 0 17.904 6.65 20.024 16.015l14.742 65.462c10.775 47.789 48.085 85.11 95.874 95.875l65.458 14.744c15.41 3.46 21.298 22.313 10.585 33.933-2.821 3.069-6.512 5.203-10.585 6.12l-65.458 14.745c-47.789 10.765-85.099 48.084-95.874 95.875l-14.742 65.458c-3.478 15.416-22.314 21.295-33.938 10.586-3.076-2.828-5.196-6.52-6.108-10.586l-14.743-65.458c-10.775-47.791-48.085-85.113-95.874-95.875l-65.458-14.745c-15.42-3.477-21.296-22.339-10.563-33.95 2.821-3.059 6.491-5.189 10.563-6.103l65.458-14.744c47.789-10.765 85.099-48.086 95.874-95.875l14.743-65.462c2.099-9.365 10.415-16.017 20.022-16.015z" fill="#fff" style=""/>
</svg>
