<svg width="1034" height="200" viewBox="0 0 1034 200" fill="none" xmlns="http://www.w3.org/2000/svg">
<path d="M100 0C104.525 0 108.446 3.13613 109.441 7.55071L116.392 38.4098C121.467 60.9391 139.061 78.5328 161.59 83.6077L192.449 90.5591C196.865 91.5535 200 95.4747 200 100C200 104.525 196.865 108.446 192.449 109.441L161.59 116.392C139.061 121.467 121.467 139.061 116.392 161.59L109.441 192.449C108.446 196.865 104.525 200 100 200C95.4748 200 91.5535 196.865 90.5587 192.449L83.6077 161.59C78.5329 139.061 60.9394 121.467 38.4103 116.392L7.55071 109.441C3.13613 108.446 0 104.525 0 100C0 95.4747 3.13613 91.5535 7.55071 90.5591L38.4103 83.6077C60.9394 78.5328 78.5329 60.9391 83.6077 38.4098L90.5587 7.55071C91.5535 3.13613 95.4748 0 100 0Z" fill="black"/>
<path d="M253.781 73.3542H272.081V78.322L280.399 73.3542H313.216L326.827 93.3762V156.303H308.528V96.6881L304.142 90.2148H274.803L272.081 93.3762V156.303H253.781V73.3542Z" fill="black"/>
<path d="M346.58 73.0531H391.193L404.956 93.5267L378.187 120.925H350.512V131.764L355.351 138.84H384.388L392.706 130.259L403.292 143.506L390.891 156.303H346.277L333.12 136.732V86.9029L346.58 73.0531ZM350.512 94.1289V105.721H371.533L382.724 93.9783L380.305 90.5159H353.99L350.512 94.1289Z" fill="black"/>
<path d="M465.541 73.3542H483.84V156.303H465.844V151.335L457.375 156.303H424.708L410.946 136.13V73.3542H429.245V132.818L433.631 139.291H462.819L465.541 136.431V73.3542Z" fill="black"/>
<path d="M488.167 73.3542H498.602L511.759 81.0318L519.17 73.3542H553.5L563.784 88.7094L549.719 98.1935L544.577 90.2148H526.429L521.59 95.3332V139.442H543.065V156.303H488.167V139.442H503.442V96.6881L499.056 90.2148H488.167V73.3542Z" fill="black"/>
<path d="M582.175 73.3542H627.696L641.307 93.5267V142.001L627.394 156.303H582.024L568.262 136.13V87.6556L582.175 73.3542ZM586.41 132.818L590.795 139.291H620.135L622.857 136.431V96.6881L618.471 90.2148H589.283L586.41 93.3762V132.818Z" fill="black"/>
<path d="M662.118 72.3004H706.278L716.562 87.204L704.766 99.3978L697.507 88.8599H669.68L666.958 91.2686V98.1935L671.192 104.366H706.581L718.377 121.829V143.055L706.43 156.303H656.069L647.902 143.657L659.699 131.614L664.992 139.291H698.566L700.078 137.635V125.442L697.204 121.226H661.816L648.81 101.807V85.2469L662.118 72.3004Z" fill="black"/>
<path d="M739.491 73.0531H784.861L797.413 91.5697L785.617 103.764L776.543 90.5159H747.657L744.33 93.9783V133.872L749.018 140.797H778.055L788.339 130.409L797.111 143.506L784.709 156.303H739.339L726.031 136.582V86.9029L739.491 73.0531Z" fill="black"/>
<path d="M815.804 73.0531H866.316L876.903 88.5588V156.303H858.603V151.335L850.286 156.303H817.317L803.706 136.13V128.151L828.054 102.86H858.603V89.7632H815.804V73.0531ZM822.61 132.818L825.483 139.291H857.998V120.022H834.86L822.61 132.517V132.818Z" fill="black"/>
<path d="M885.313 43.6975H907.846L922.214 52.1278V132.969L926.599 139.442H952.309V156.303H917.677L904.065 136.281V60.5581H885.313V43.6975Z" fill="black"/>
<path d="M975.237 73.0531H1019.85L1033.61 93.5267L1006.85 120.925H979.169V131.764L984.009 138.84H1013.05L1021.36 130.259L1031.95 143.506L1019.55 156.303H974.935L961.778 136.732V86.9029L975.237 73.0531ZM979.169 94.1289V105.721H1000.19L1011.38 93.9783L1008.96 90.5159H982.648L979.169 94.1289Z" fill="black"/>
</svg>
